Coordinates
version=1
nRows=21
nColumns=12
inDegrees=yes

Units are S.I. units (second, meters, Newtons, ...)
Angles are in degrees

endheader
time	SC_y	SC_z	SC_x	AC_y	AC_z	AC_x	GH_y	GH_z	GH_yy	EL_x	PS_y
       0.0              -20.88           5.04          73.51          39.75          7.642         -10.28         -1.558          56.07         -81.11          139.5          104.1
  0.002669              -20.88          5.044          73.51          39.76           7.64         -10.28         -1.533          56.07         -81.12          139.5          104.1
  0.005338              -20.88          5.048           73.5          39.76          7.638         -10.28         -1.507          56.07         -81.14          139.5          104.0
  0.008007              -20.88          5.053           73.5          39.76          7.636         -10.28         -1.479          56.08         -81.15          139.5          104.0
   0.01068              -20.88          5.057           73.5          39.77          7.634         -10.28         -1.449          56.08         -81.17          139.5          104.0
   0.01334              -20.88          5.063          73.49          39.77          7.632         -10.28         -1.417          56.08         -81.18          139.5          104.0
   0.01601              -20.88          5.068          73.49          39.78           7.63         -10.28         -1.383          56.08          -81.2          139.5          104.0
   0.01868              -20.87          5.074          73.49          39.78          7.627         -10.27         -1.347          56.09         -81.22          139.5          104.0
   0.02135              -20.87           5.08          73.48          39.79          7.624         -10.27         -1.308          56.09         -81.24          139.4          104.0
   0.02402              -20.87          5.087          73.48          39.79          7.621         -10.27         -1.266           56.1         -81.26          139.4          103.9
   0.02669              -20.87          5.094          73.47           39.8          7.618         -10.27         -1.221           56.1         -81.28          139.4          103.9
   0.02936              -20.87          5.101          73.47          39.81          7.615         -10.27         -1.173           56.1          -81.3          139.4          103.9
   0.03203              -20.87           5.11          73.46          39.81          7.611         -10.27         -1.121          56.11         -81.33          139.4          103.9
    0.0347              -20.87          5.119          73.45          39.82          7.607         -10.27         -1.064          56.11         -81.36          139.4          103.8
   0.03736              -20.87          5.128          73.45          39.83          7.603         -10.27         -1.003          56.12         -81.39          139.4          103.8
   0.04003              -20.87          5.139          73.44          39.84          7.598         -10.27        -0.9374          56.13         -81.42          139.4          103.8
    0.0427              -20.87           5.15          73.43          39.85          7.593         -10.27        -0.8656          56.13         -81.46          139.3          103.8
   0.04537              -20.87          5.163          73.42          39.86          7.587         -10.27        -0.7874          56.14          -81.5          139.3          103.7
   0.04804              -20.86          5.176          73.41          39.87          7.581         -10.27         -0.702          56.15         -81.54          139.3          103.7
   0.05071              -20.86          5.191           73.4          39.88          7.575         -10.27        -0.6085          56.16         -81.59          139.3          103.6
   0.05338              -20.86          5.207          73.39           39.9          7.568         -10.27        -0.5059          56.17         -81.64          139.3          103.6
